<svg width="127" height="52" viewBox="0 0 127 52" fill="none" xmlns="http://www.w3.org/2000/svg">
<g id="Logo" filter="url(#filter0_i_3_519)">
<g id="Group">
<path id="Vector" fill-rule="evenodd" clip-rule="evenodd" d="M66.7598 42.9767V30.5365L53.3409 24.9346L60.3839 17.5632L51.1535 8.73914L48.5357 14.1402L48.6361 8.94776L36.9385 12.9734L37.2397 19.7421L39.2264 19.1858L41.2919 43.0694L49.5398 41.7636L49.5254 33.7895L66.7598 42.9767Z" fill="#940000"/>
<path id="Vector_2" fill-rule="evenodd" clip-rule="evenodd" d="M39.1401 14.7111L46.2476 12.4317L46.6851 20.3207L51.9207 12.4008L57.0344 17.6473L49.8839 25.7682L64.6009 32.0501V39.2746L47.5027 30.0565L47.5314 39.7151L43.1063 40.3641L41.22 16.2024L39.2262 16.7587L39.1401 14.7111Z" fill="white"/>
<path id="Vector_3" fill-rule="evenodd" clip-rule="evenodd" d="M93.0301 9.92859H85.2843L85.062 11.2962H76.9146L73.1062 36.3852L82.4012 37.9615L82.9104 34.3608L85.3417 39.1901L86.8191 36.1071L87.3642 41.1681L97.8999 43.1694L93.0301 9.92859Z" fill="#940000"/>
<path id="Vector_4" fill-rule="evenodd" clip-rule="evenodd" d="M87.3221 12.2477H91.2667L95.2616 40.1956L89.4379 39.2375L87.8887 28.1804L85.7012 34.2768L82.4164 26.6582H82.3806L81.0824 35.49L75.6245 34.4623L78.8735 13.5381H84.3959L85.773 21.6512L87.3221 12.2477Z" fill="white"/>
<path id="Vector_5" fill-rule="evenodd" clip-rule="evenodd" d="M102.892 12.2159L114.547 14.9744L115.415 19.6105L116.354 15.4303L126.273 18.0188L116.749 48.9338L109.441 46.4535L109.383 43.355L102.369 42.2965L104.736 19.6105L102.979 19.1855L102.892 12.2159Z" fill="#940000"/>
<path id="Vector_6" fill-rule="evenodd" clip-rule="evenodd" d="M104.965 15.1129L112.56 16.7587L115.121 29.8171L117.739 18.1109L123.519 19.494L115.379 46.0588L111.334 44.753L110.983 28.6967L108.946 41.0828L104.535 40.3333L106.514 17.8405L104.85 17.3614L104.965 15.1129Z" fill="white"/>
<path id="Vector_7" fill-rule="evenodd" clip-rule="evenodd" d="M101.774 38.7261C99.2564 39.7461 96.5813 39.6302 94.4296 38.3939C92.4358 37.258 91.0444 35.2877 90.5065 32.8537C89.4307 28.0013 92.4071 22.4612 97.1407 20.5063C99.6867 19.4709 102.383 19.5945 104.549 20.8385C106.522 21.9666 107.899 23.8906 108.422 26.255C109.52 31.177 106.543 36.7712 101.774 38.7261Z" fill="#940000"/>
<path id="Vector_8" fill-rule="evenodd" clip-rule="evenodd" d="M106.577 26.7042C105.717 22.8099 101.858 20.855 97.8991 22.4622C94.062 24.0462 91.5446 28.52 92.4124 32.4143C93.3018 36.4323 97.1245 38.3794 101.083 36.7722C104.949 35.196 107.467 30.6912 106.577 26.7042Z" fill="white"/>
<path id="Vector_9" fill-rule="evenodd" clip-rule="evenodd" d="M103.702 27.3907C103.623 29.5387 101.888 31.1614 99.7647 31.0686C97.6776 30.9759 96.0711 29.2142 96.15 27.0661C96.2289 25.0494 97.9574 23.4268 100.08 23.5195C102.175 23.6123 103.781 25.374 103.702 27.3907Z" fill="#940000"/>
<path id="Vector_10" fill-rule="evenodd" clip-rule="evenodd" d="M101.005 23.612C99.7353 23.5579 98.6739 24.5005 98.6237 25.7137C98.5806 26.9268 99.5704 27.9622 100.84 28.0162C102.109 28.0703 103.171 27.1277 103.221 25.9146C103.264 24.7014 102.274 23.666 101.005 23.612Z" fill="white"/>
<path id="Vector_11" fill-rule="evenodd" clip-rule="evenodd" d="M37.5188 41.4315C34.9441 42.606 32.1541 42.606 29.8663 41.4237C27.7505 40.3265 26.2229 38.3485 25.5702 35.8373C24.2649 30.838 27.1409 24.9424 31.9892 22.6939C34.5926 21.5117 37.4041 21.5117 39.7063 22.7094C41.8005 23.7911 43.3067 25.7306 43.945 28.1645C45.279 33.2333 42.3958 39.1907 37.5188 41.4315Z" fill="#940000"/>
<path id="Vector_12" fill-rule="evenodd" clip-rule="evenodd" d="M42.1017 28.4736C41.0402 24.4248 36.9235 22.5549 32.8354 24.4248C28.8693 26.2637 26.4093 31.0698 27.4707 35.1187C28.5609 39.2989 32.649 41.161 36.737 39.2989C40.7318 37.4599 43.1918 32.6152 42.1017 28.4736Z" fill="white"/>
<path id="Vector_13" fill-rule="evenodd" clip-rule="evenodd" d="M39.3337 29.2457C39.3337 31.3937 37.6626 33.0859 35.5396 33.0859C33.4526 33.0859 31.7815 31.3937 31.7815 29.2457C31.7815 27.229 33.4526 25.5291 35.5755 25.5291C37.6626 25.5291 39.3337 27.2212 39.3337 29.2457Z" fill="#940000"/>
<path id="Vector_14" fill-rule="evenodd" clip-rule="evenodd" d="M36.5 25.5829C35.2305 25.5829 34.1978 26.5719 34.1978 27.785C34.1978 28.9981 35.2234 29.9872 36.5 29.9872C37.7694 29.9872 38.8022 28.9981 38.8022 27.785C38.8022 26.5719 37.7694 25.5829 36.5 25.5829Z" fill="white"/>
<path id="Vector_15" fill-rule="evenodd" clip-rule="evenodd" d="M23.3107 33.9676C28.8475 29.5865 31.4868 22.9646 29.4858 17.9963C28.6108 15.8251 27.076 14.0324 25.1969 12.9043C23.8773 11.9617 22.3066 11.3667 20.657 11.1658C16.612 10.4008 11.7565 11.189 6.97994 13.3757C5.22279 14.1792 3.58039 15.1065 2.10295 16.1187L0.223877 17.3936L1.34989 19.4489L4.84984 25.8236C4.84984 25.8236 5.92565 27.7862 5.93282 27.7785L7.83341 26.7817L8.09878 26.6426L16.7985 47.5746L17.6376 49.5835L19.5884 48.9113L24.3004 47.2887L26.366 46.5778L25.8209 44.3216L23.3107 33.9676Z" fill="#940000"/>
<path id="Vector_16" fill-rule="evenodd" clip-rule="evenodd" d="M27.3831 18.9765C26.6874 17.2534 25.4897 15.9012 23.9262 14.9508C22.793 14.1395 21.4805 13.7377 20.2541 13.5909C16.7685 12.9341 12.4294 13.5522 7.86079 15.6385C6.23274 16.3803 4.71227 17.2302 3.31372 18.1883L6.81368 24.563C7.71018 24.0916 8.67841 23.5894 9.20197 23.288L18.877 46.5535L23.5891 44.9309L20.6844 32.8925C26.2571 29.2068 29.0685 23.1567 27.3831 18.9765Z" fill="white"/>
<path id="Vector_17" fill-rule="evenodd" clip-rule="evenodd" d="M76.8793 25.097L73.5658 21.8827L75.1939 20.0205L76.657 18.3438L75.3086 16.5589C72.6765 13.0664 68.4665 11.6678 64.0485 12.8191C57.9021 14.4108 54.438 20.1132 55.8078 26.3642C56.3601 28.8832 57.8232 31.039 59.9389 32.4375C62.4635 34.1142 65.6407 34.5701 68.8753 33.7279C72.2892 32.8393 74.7994 31.348 77.0012 28.8986L78.7656 26.936L76.8793 25.097Z" fill="#940000"/>
<path id="Vector_18" fill-rule="evenodd" clip-rule="evenodd" d="M71.7855 23.5746C70.9535 24.6332 69.9996 25.5991 68.307 26.0395C67.7404 26.1863 66.973 26.3254 66.4853 26.2327L73.6072 18.0654C71.599 15.3997 68.2999 14.1634 64.5632 15.137C59.9157 16.3423 56.7744 20.5148 57.9363 25.8309C58.8686 30.1038 63.2579 32.7232 68.3501 31.4019C71.4341 30.5983 73.5785 29.3157 75.5006 27.1754L71.7855 23.5746Z" fill="white"/>
<path id="Vector_19" fill-rule="evenodd" clip-rule="evenodd" d="M60.6626 11.4742L69.3838 0.648926L74.2106 8.41438L63.1872 14.7967L60.6626 11.4742Z" fill="#940000"/>
<path id="Vector_20" fill-rule="evenodd" clip-rule="evenodd" d="M69.0107 4.0946L71.5639 7.83439L64.27 11.7287L63.7607 10.9019L69.0107 4.0946Z" fill="white"/>
<path id="Vector_21" fill-rule="evenodd" clip-rule="evenodd" d="M63.6044 23.6975C63.0809 22.6698 63.1813 21.3485 63.963 20.4291C64.7161 19.5405 65.8636 19.2855 66.8462 19.695L63.6044 23.6975ZM63.963 20.4291C63.1885 21.3485 63.0809 22.6698 63.6044 23.6975L66.8462 19.695C65.8636 19.2855 64.7089 19.5405 63.963 20.4291ZM68.6464 19.0923C66.9825 17.462 64.4149 17.5933 62.9016 19.3859C61.3883 21.1786 61.5102 23.9448 63.1741 25.5751C63.3104 25.7142 63.461 25.8301 63.6116 25.9383L68.9404 19.4014C68.84 19.2932 68.7468 19.1928 68.6464 19.0923ZM63.6044 23.6975C63.0809 22.6698 63.1813 21.3485 63.963 20.4291C64.7161 19.5405 65.8636 19.2855 66.8462 19.695L63.6044 23.6975Z" fill="#940000"/>
<path id="Vector_22" fill-rule="evenodd" clip-rule="evenodd" d="M23.7197 22.9562C23.3037 20.4914 20.3273 19.1083 17.3438 20.8314L18.0896 23.6594L19.2659 27.8319L19.8038 29.7327C22.0414 28.2105 24.2935 26.3715 23.7197 22.9562ZM20.7576 26.7269C20.4349 25.5834 19.7392 23.1185 19.7392 23.1185C19.7464 23.134 19.5958 22.5854 19.438 21.9749C20.0691 21.8513 20.6716 21.9131 21.1736 22.1758C21.4533 22.3226 21.9339 22.6549 22.0343 23.2885C22.2709 24.7025 21.8191 25.7147 20.7576 26.7269Z" fill="#940000"/>
<path id="Vector_23" fill-rule="evenodd" clip-rule="evenodd" d="M24.998 51.09C25.0053 51.1133 25.0125 51.1289 25.0198 51.1523C25.0198 51.1601 25.027 51.1679 25.027 51.1757C25.0198 51.1445 25.0053 51.1211 24.998 51.09Z" fill="#940000"/>
<path id="Vector_24" fill-rule="evenodd" clip-rule="evenodd" d="M118.849 46.1293H120.993V46.4693H120.104V48.9805H119.738V46.4693H118.849V46.1293Z" fill="#940000"/>
<path id="Vector_25" fill-rule="evenodd" clip-rule="evenodd" d="M121.311 48.9805V46.1293H121.827L122.587 48.54L123.34 46.1293H123.85V48.9805H123.513V47.296C123.513 47.2342 123.513 47.1415 123.52 47.0101C123.52 46.8788 123.52 46.732 123.52 46.5774L122.767 48.9805H122.415L121.655 46.5774V46.6624C121.655 46.732 121.655 46.8401 121.662 46.9792C121.662 47.1183 121.669 47.2265 121.669 47.296V48.9805H121.311Z" fill="#940000"/>
</g>
</g>
<defs>
<filter id="filter0_i_3_519" x="0.223877" y="0.648804" width="131.664" height="56.1408" filterUnits="userSpaceOnUse" color-interpolation-filters="sRGB">
<feFlood flood-opacity="0" result="BackgroundImageFix"/>
<feBlend mode="normal" in="SourceGraphic" in2="BackgroundImageFix" result="shape"/>
<feColorMatrix in="SourceAlpha" type="matrix" values="0 0 0 0 0 0 0 0 0 0 0 0 0 0 0 0 0 0 127 0" result="hardAlpha"/>
<feOffset dx="5.61397" dy="5.61397"/>
<feGaussianBlur stdDeviation="5.61397"/>
<feComposite in2="hardAlpha" operator="arithmetic" k2="-1" k3="1"/>
<feColorMatrix type="matrix" values="0 0 0 0 0.229167 0 0 0 0 0.217708 0 0 0 0 0.219618 0 0 0 0.65 0"/>
<feBlend mode="normal" in2="shape" result="effect1_innerShadow_3_519"/>
</filter>
</defs>
</svg>
